<svg width="15" height="15" viewBox="0 0 15 15" fill="none" xmlns="http://www.w3.org/2000/svg">
<g id="Group 89">
<path id="Vector" d="M6.02062 10.2319C6.07581 10.309 6.14857 10.3717 6.23286 10.415C6.31715 10.4583 6.41054 10.4809 6.50531 10.4809C6.60007 10.4809 6.69347 10.4583 6.77776 10.415C6.86205 10.3717 6.9348 10.309 6.98999 10.2319L10.9387 4.75692C11.01 4.65755 10.9387 4.5188 10.8169 4.5188H9.93749C9.74624 4.5188 9.56437 4.61067 9.45187 4.76817L6.50624 8.85567L5.17124 7.00317C5.05874 6.84755 4.87874 6.7538 4.68562 6.7538H3.80624C3.68437 6.7538 3.61312 6.89255 3.68437 6.99192L6.02062 10.2319Z" fill="#E2E5E9"/>
<path id="Vector_2" d="M14.4 0H0.6C0.268125 0 0 0.268125 0 0.6V14.4C0 14.7319 0.268125 15 0.6 15H14.4C14.7319 15 15 14.7319 15 14.4V0.6C15 0.268125 14.7319 0 14.4 0ZM13.65 13.65H1.35V1.35H13.65V13.65Z" fill="#E2E5E9"/>
</g>
</svg>
