<svg width="15" height="15" viewBox="0 0 15 15" fill="none" xmlns="http://www.w3.org/2000/svg">
<g id="Group 86">
<path id="Vector" d="M14.4 0H0.6C0.268125 0 0 0.268125 0 0.6V14.4C0 14.7319 0.268125 15 0.6 15H14.4C14.7319 15 15 14.7319 15 14.4V0.6C15 0.268125 14.7319 0 14.4 0ZM10.9406 4.75688L6.99188 10.2319C6.93668 10.3089 6.86393 10.3717 6.77964 10.415C6.69535 10.4583 6.60195 10.4809 6.50719 10.4809C6.41243 10.4809 6.31903 10.4583 6.23474 10.415C6.15045 10.3717 6.07769 10.3089 6.0225 10.2319L3.68438 6.99188C3.61313 6.8925 3.68438 6.75375 3.80625 6.75375H4.68563C4.87687 6.75375 5.05875 6.84563 5.17125 7.00313L6.50625 8.85563L9.45375 4.76813C9.56625 4.6125 9.74625 4.51875 9.93937 4.51875H10.8188C10.9406 4.51875 11.0119 4.6575 10.9406 4.75688Z" fill="#555555"/>
</g>
</svg>
